solid
 facet normal -9.989531e-01  0.000000e+00  4.574506e-02
   outer loop
     vertex -3.870000e+00 -2.922500e+00  1.217000e+00
     vertex -3.838006e+00 -2.890506e+00  1.915675e+00
     vertex -3.870000e+00  2.922500e+00  1.217000e+00
   endloop
 endfacet
 facet normal -9.989531e-01  0.000000e+00  4.574506e-02
   outer loop
     vertex -3.870000e+00  2.922500e+00  1.217000e+00
     vertex -3.838006e+00 -2.890506e+00  1.915675e+00
     vertex -3.838006e+00  2.890506e+00  1.915675e+00
   endloop
 endfacet
 facet normal  7.460055e-16 -9.989531e-01  4.574506e-02
   outer loop
     vertex -3.163500e+00 -2.861000e+00  2.560000e+00
     vertex -3.838006e+00 -2.890506e+00  1.915675e+00
     vertex -3.870000e+00 -2.922500e+00  1.217000e+00
   endloop
 endfacet
 facet normal  0.000000e+00 -9.989531e-01  4.574506e-02
   outer loop
     vertex  3.870000e+00 -2.922500e+00  1.217000e+00
     vertex -3.163500e+00 -2.861000e+00  2.560000e+00
     vertex -3.870000e+00 -2.922500e+00  1.217000e+00
   endloop
 endfacet
 facet normal  0.000000e+00 -9.989531e-01  4.574506e-02
   outer loop
     vertex  3.808500e+00 -2.861000e+00  2.560000e+00
     vertex -3.163500e+00 -2.861000e+00  2.560000e+00
     vertex  3.870000e+00 -2.922500e+00  1.217000e+00
   endloop
 endfacet
 facet normal -6.907441e-01  0.000000e+00  7.230993e-01
   outer loop
     vertex -3.838006e+00 -2.890506e+00  1.915675e+00
     vertex -3.163500e+00 -2.861000e+00  2.560000e+00
     vertex -3.163500e+00  2.861000e+00  2.560000e+00
   endloop
 endfacet
 facet normal -6.907441e-01  0.000000e+00  7.230993e-01
   outer loop
     vertex -3.838006e+00  2.890506e+00  1.915675e+00
     vertex -3.838006e+00 -2.890506e+00  1.915675e+00
     vertex -3.163500e+00  2.861000e+00  2.560000e+00
   endloop
 endfacet
 facet normal -1.000000e+00 -0.000000e+00 -4.440892e-14
   outer loop
     vertex -3.870000e+00  2.922500e+00  1.217000e+00
     vertex -3.870000e+00  2.922500e+00  1.207000e+00
     vertex -3.870000e+00 -2.922500e+00  1.207000e+00
   endloop
 endfacet
 facet normal -1.000000e+00  0.000000e+00 -4.440892e-14
   outer loop
     vertex -3.870000e+00  2.922500e+00  1.217000e+00
     vertex -3.870000e+00 -2.922500e+00  1.207000e+00
     vertex -3.870000e+00 -2.922500e+00  1.217000e+00
   endloop
 endfacet
 facet normal -5.768084e-16  9.989531e-01  4.574506e-02
   outer loop
     vertex -3.870000e+00  2.922500e+00  1.217000e+00
     vertex -3.838006e+00  2.890506e+00  1.915675e+00
     vertex -3.163500e+00  2.861000e+00  2.560000e+00
   endloop
 endfacet
 facet normal  0.000000e+00  9.989531e-01  4.574506e-02
   outer loop
     vertex -3.870000e+00  2.922500e+00  1.217000e+00
     vertex -3.163500e+00  2.861000e+00  2.560000e+00
     vertex  3.870000e+00  2.922500e+00  1.217000e+00
   endloop
 endfacet
 facet normal -6.362942e-17  9.989531e-01  4.574506e-02
   outer loop
     vertex  3.870000e+00  2.922500e+00  1.217000e+00
     vertex -3.163500e+00  2.861000e+00  2.560000e+00
     vertex  3.808500e+00  2.861000e+00  2.560000e+00
   endloop
 endfacet
 facet normal  0.000000e+00 -1.000000e+00  0.000000e+00
   outer loop
     vertex -3.870000e+00 -2.922500e+00  1.207000e+00
     vertex  3.870000e+00 -2.922500e+00  1.207000e+00
     vertex  3.870000e+00 -2.922500e+00  1.217000e+00
   endloop
 endfacet
 facet normal  0.000000e+00 -1.000000e+00  0.000000e+00
   outer loop
     vertex -3.870000e+00 -2.922500e+00  1.217000e+00
     vertex -3.870000e+00 -2.922500e+00  1.207000e+00
     vertex  3.870000e+00 -2.922500e+00  1.217000e+00
   endloop
 endfacet
 facet normal -0.000000e+00  0.000000e+00  1.000000e+00
   outer loop
     vertex  3.808500e+00  2.861000e+00  2.560000e+00
     vertex -3.163500e+00 -2.861000e+00  2.560000e+00
     vertex  3.808500e+00 -2.861000e+00  2.560000e+00
   endloop
 endfacet
 facet normal  0.000000e+00  0.000000e+00  1.000000e+00
   outer loop
     vertex  3.808500e+00  2.861000e+00  2.560000e+00
     vertex -3.163500e+00  2.861000e+00  2.560000e+00
     vertex -3.163500e+00 -2.861000e+00  2.560000e+00
   endloop
 endfacet
 facet normal  9.989531e-01  0.000000e+00  4.574506e-02
   outer loop
     vertex  3.870000e+00  2.922500e+00  1.217000e+00
     vertex  3.808500e+00 -2.861000e+00  2.560000e+00
     vertex  3.870000e+00 -2.922500e+00  1.217000e+00
   endloop
 endfacet
 facet normal  9.989531e-01  0.000000e+00  4.574506e-02
   outer loop
     vertex  3.808500e+00  2.861000e+00  2.560000e+00
     vertex  3.808500e+00 -2.861000e+00  2.560000e+00
     vertex  3.870000e+00  2.922500e+00  1.217000e+00
   endloop
 endfacet
 facet normal -9.984604e-01  0.000000e+00 -5.547002e-02
   outer loop
     vertex -3.870000e+00  2.922500e+00  1.207000e+00
     vertex -3.808500e+00 -2.861000e+00  1.000000e-01
     vertex -3.870000e+00 -2.922500e+00  1.207000e+00
   endloop
 endfacet
 facet normal -9.984604e-01 -0.000000e+00 -5.547002e-02
   outer loop
     vertex -3.808500e+00  2.861000e+00  1.000000e-01
     vertex -3.808500e+00 -2.861000e+00  1.000000e-01
     vertex -3.870000e+00  2.922500e+00  1.207000e+00
   endloop
 endfacet
 facet normal  0.000000e+00  1.000000e+00  0.000000e+00
   outer loop
     vertex  3.870000e+00  2.922500e+00  1.217000e+00
     vertex  3.870000e+00  2.922500e+00  1.207000e+00
     vertex -3.870000e+00  2.922500e+00  1.207000e+00
   endloop
 endfacet
 facet normal  0.000000e+00  1.000000e+00  0.000000e+00
   outer loop
     vertex  3.870000e+00  2.922500e+00  1.217000e+00
     vertex -3.870000e+00  2.922500e+00  1.207000e+00
     vertex -3.870000e+00  2.922500e+00  1.217000e+00
   endloop
 endfacet
 facet normal  1.000000e+00  0.000000e+00  0.000000e+00
   outer loop
     vertex  3.870000e+00 -2.922500e+00  1.207000e+00
     vertex  3.870000e+00  2.922500e+00  1.207000e+00
     vertex  3.870000e+00  2.922500e+00  1.217000e+00
   endloop
 endfacet
 facet normal  1.000000e+00 -0.000000e+00  0.000000e+00
   outer loop
     vertex  3.870000e+00 -2.922500e+00  1.217000e+00
     vertex  3.870000e+00 -2.922500e+00  1.207000e+00
     vertex  3.870000e+00  2.922500e+00  1.217000e+00
   endloop
 endfacet
 facet normal  0.000000e+00 -9.984604e-01 -5.547002e-02
   outer loop
     vertex -3.870000e+00 -2.922500e+00  1.207000e+00
     vertex -3.808500e+00 -2.861000e+00  1.000000e-01
     vertex  3.808500e+00 -2.861000e+00  1.000000e-01
   endloop
 endfacet
 facet normal -0.000000e+00 -9.984604e-01 -5.547002e-02
   outer loop
     vertex  3.870000e+00 -2.922500e+00  1.207000e+00
     vertex -3.870000e+00 -2.922500e+00  1.207000e+00
     vertex  3.808500e+00 -2.861000e+00  1.000000e-01
   endloop
 endfacet
 facet normal  0.000000e+00  0.000000e+00 -1.000000e+00
   outer loop
     vertex -3.808500e+00 -2.861000e+00  1.000000e-01
     vertex -3.808500e+00  2.861000e+00  1.000000e-01
     vertex  3.808500e+00  2.861000e+00  1.000000e-01
   endloop
 endfacet
 facet normal  0.000000e+00  0.000000e+00 -1.000000e+00
   outer loop
     vertex  3.808500e+00 -2.861000e+00  1.000000e-01
     vertex -3.808500e+00 -2.861000e+00  1.000000e-01
     vertex  3.808500e+00  2.861000e+00  1.000000e-01
   endloop
 endfacet
 facet normal  0.000000e+00  9.984604e-01 -5.547002e-02
   outer loop
     vertex  3.808500e+00  2.861000e+00  1.000000e-01
     vertex -3.808500e+00  2.861000e+00  1.000000e-01
     vertex -3.870000e+00  2.922500e+00  1.207000e+00
   endloop
 endfacet
 facet normal  0.000000e+00  9.984604e-01 -5.547002e-02
   outer loop
     vertex  3.808500e+00  2.861000e+00  1.000000e-01
     vertex -3.870000e+00  2.922500e+00  1.207000e+00
     vertex  3.870000e+00  2.922500e+00  1.207000e+00
   endloop
 endfacet
 facet normal  9.984604e-01  0.000000e+00 -5.547002e-02
   outer loop
     vertex  3.870000e+00 -2.922500e+00  1.207000e+00
     vertex  3.808500e+00 -2.861000e+00  1.000000e-01
     vertex  3.870000e+00  2.922500e+00  1.207000e+00
   endloop
 endfacet
 facet normal  9.984604e-01  0.000000e+00 -5.547002e-02
   outer loop
     vertex  3.870000e+00  2.922500e+00  1.207000e+00
     vertex  3.808500e+00 -2.861000e+00  1.000000e-01
     vertex  3.808500e+00  2.861000e+00  1.000000e-01
   endloop
 endfacet
 facet normal  0.000000e+00 -1.000000e+00  0.000000e+00
   outer loop
     vertex -3.895882e+00 -1.497500e+00  3.407417e-03
     vertex -3.870000e+00 -1.497500e+00 -1.387779e-17
     vertex -3.870000e+00 -1.497500e+00  1.000000e-01
   endloop
 endfacet
 facet normal  0.000000e+00 -1.000000e+00  0.000000e+00
   outer loop
     vertex -3.920000e+00 -1.497500e+00  1.339746e-02
     vertex -3.895882e+00 -1.497500e+00  3.407417e-03
     vertex -3.870000e+00 -1.497500e+00  1.000000e-01
   endloop
 endfacet
 facet normal  0.000000e+00 -1.000000e+00  0.000000e+00
   outer loop
     vertex -3.940711e+00 -1.497500e+00  2.928932e-02
     vertex -3.920000e+00 -1.497500e+00  1.339746e-02
     vertex -3.870000e+00 -1.497500e+00  1.000000e-01
   endloop
 endfacet
 facet normal  0.000000e+00 -1.000000e+00  0.000000e+00
   outer loop
     vertex -3.956603e+00 -1.497500e+00  5.000000e-02
     vertex -3.940711e+00 -1.497500e+00  2.928932e-02
     vertex -3.870000e+00 -1.497500e+00  1.000000e-01
   endloop
 endfacet
 facet normal  0.000000e+00 -1.000000e+00  0.000000e+00
   outer loop
     vertex -3.966593e+00 -1.497500e+00  7.411810e-02
     vertex -3.956603e+00 -1.497500e+00  5.000000e-02
     vertex -3.870000e+00 -1.497500e+00  1.000000e-01
   endloop
 endfacet
 facet normal  0.000000e+00 -1.000000e+00  0.000000e+00
   outer loop
     vertex -3.970000e+00 -1.497500e+00  1.000000e-01
     vertex -3.966593e+00 -1.497500e+00  7.411810e-02
     vertex -3.870000e+00 -1.497500e+00  1.000000e-01
   endloop
 endfacet
 facet normal  0.000000e+00 -1.000000e+00  0.000000e+00
   outer loop
     vertex -3.870000e+00 -1.497500e+00  1.000000e-01
     vertex -3.870000e+00 -1.497500e+00 -1.387779e-17
     vertex -2.955000e+00 -1.497500e+00  0.000000e+00
   endloop
 endfacet
 facet normal  0.000000e+00 -1.000000e+00  0.000000e+00
   outer loop
     vertex -3.970000e+00 -1.497500e+00  1.000000e-01
     vertex -3.870000e+00 -1.497500e+00  1.000000e-01
     vertex -3.970000e+00 -1.497500e+00  1.107000e+00
   endloop
 endfacet
 facet normal  0.000000e+00 -1.000000e+00  0.000000e+00
   outer loop
     vertex -3.870000e+00 -1.497500e+00  1.000000e-01
     vertex -2.955000e+00 -1.497500e+00  0.000000e+00
     vertex -2.955000e+00 -1.497500e+00  1.000000e-01
   endloop
 endfacet
 facet normal  0.000000e+00 -1.000000e+00 -0.000000e+00
   outer loop
     vertex -3.966593e+00 -1.497500e+00  1.132882e+00
     vertex -3.970000e+00 -1.497500e+00  1.107000e+00
     vertex -3.870000e+00 -1.497500e+00  1.107000e+00
   endloop
 endfacet
 facet normal  0.000000e+00 -1.000000e+00 -0.000000e+00
   outer loop
     vertex -3.956603e+00 -1.497500e+00  1.157000e+00
     vertex -3.966593e+00 -1.497500e+00  1.132882e+00
     vertex -3.870000e+00 -1.497500e+00  1.107000e+00
   endloop
 endfacet
 facet normal  0.000000e+00 -1.000000e+00 -0.000000e+00
   outer loop
     vertex -3.940711e+00 -1.497500e+00  1.177711e+00
     vertex -3.956603e+00 -1.497500e+00  1.157000e+00
     vertex -3.870000e+00 -1.497500e+00  1.107000e+00
   endloop
 endfacet
 facet normal  0.000000e+00 -1.000000e+00  0.000000e+00
   outer loop
     vertex -3.970000e+00 -1.497500e+00  1.107000e+00
     vertex -3.870000e+00 -1.497500e+00  1.000000e-01
     vertex -3.870000e+00 -1.497500e+00  1.107000e+00
   endloop
 endfacet
 facet normal  0.000000e+00 -1.000000e+00  0.000000e+00
   outer loop
     vertex -3.940711e+00 -1.497500e+00  1.177711e+00
     vertex -3.870000e+00 -1.497500e+00  1.107000e+00
     vertex -3.920000e+00 -1.497500e+00  1.193603e+00
   endloop
 endfacet
 facet normal  0.000000e+00 -1.000000e+00  0.000000e+00
   outer loop
     vertex -3.920000e+00 -1.497500e+00  1.193603e+00
     vertex -3.870000e+00 -1.497500e+00  1.107000e+00
     vertex -3.895882e+00 -1.497500e+00  1.203593e+00
   endloop
 endfacet
 facet normal  0.000000e+00 -1.000000e+00  0.000000e+00
   outer loop
     vertex -3.895882e+00 -1.497500e+00  1.203593e+00
     vertex -3.870000e+00 -1.497500e+00  1.107000e+00
     vertex -3.870000e+00 -1.497500e+00  1.207000e+00
   endloop
 endfacet
 facet normal  0.000000e+00 -1.000000e+00  0.000000e+00
   outer loop
     vertex -3.870000e+00 -1.497500e+00  1.107000e+00
     vertex -3.055000e+00 -1.497500e+00  1.107000e+00
     vertex -3.055000e+00 -1.497500e+00  1.207000e+00
   endloop
 endfacet
 facet normal  0.000000e+00 -1.000000e+00  0.000000e+00
   outer loop
     vertex -3.870000e+00 -1.497500e+00  1.207000e+00
     vertex -3.870000e+00 -1.497500e+00  1.107000e+00
     vertex -3.055000e+00 -1.497500e+00  1.207000e+00
   endloop
 endfacet
 facet normal -0.000000e+00  0.000000e+00  1.000000e+00
   outer loop
     vertex -3.870000e+00  1.497500e+00  1.207000e+00
     vertex -3.870000e+00 -1.497500e+00  1.207000e+00
     vertex -3.055000e+00 -1.497500e+00  1.207000e+00
   endloop
 endfacet
 facet normal  0.000000e+00  0.000000e+00  1.000000e+00
   outer loop
     vertex -3.055000e+00  1.497500e+00  1.207000e+00
     vertex -3.870000e+00  1.497500e+00  1.207000e+00
     vertex -3.055000e+00 -1.497500e+00  1.207000e+00
   endloop
 endfacet
 facet normal -9.914449e-01  0.000000e+00  1.305262e-01
   outer loop
     vertex -3.970000e+00  1.497500e+00  1.107000e+00
     vertex -3.970000e+00 -1.497500e+00  1.107000e+00
     vertex -3.966593e+00 -1.497500e+00  1.132882e+00
   endloop
 endfacet
 facet normal -9.914449e-01  0.000000e+00  1.305262e-01
   outer loop
     vertex -3.966593e+00  1.497500e+00  1.132882e+00
     vertex -3.970000e+00  1.497500e+00  1.107000e+00
     vertex -3.966593e+00 -1.497500e+00  1.132882e+00
   endloop
 endfacet
 facet normal -9.238795e-01  0.000000e+00  3.826834e-01
   outer loop
     vertex -3.956603e+00  1.497500e+00  1.157000e+00
     vertex -3.966593e+00 -1.497500e+00  1.132882e+00
     vertex -3.956603e+00 -1.497500e+00  1.157000e+00
   endloop
 endfacet
 facet normal -7.933533e-01  0.000000e+00  6.087614e-01
   outer loop
     vertex -3.956603e+00  1.497500e+00  1.157000e+00
     vertex -3.956603e+00 -1.497500e+00  1.157000e+00
     vertex -3.940711e+00 -1.497500e+00  1.177711e+00
   endloop
 endfacet
 facet normal -9.238795e-01  0.000000e+00  3.826834e-01
   outer loop
     vertex -3.956603e+00  1.497500e+00  1.157000e+00
     vertex -3.966593e+00  1.497500e+00  1.132882e+00
     vertex -3.966593e+00 -1.497500e+00  1.132882e+00
   endloop
 endfacet
 facet normal -7.933533e-01  0.000000e+00  6.087614e-01
   outer loop
     vertex -3.940711e+00  1.497500e+00  1.177711e+00
     vertex -3.956603e+00  1.497500e+00  1.157000e+00
     vertex -3.940711e+00 -1.497500e+00  1.177711e+00
   endloop
 endfacet
 facet normal -6.087614e-01  0.000000e+00  7.933533e-01
   outer loop
     vertex -3.920000e+00  1.497500e+00  1.193603e+00
     vertex -3.940711e+00 -1.497500e+00  1.177711e+00
     vertex -3.920000e+00 -1.497500e+00  1.193603e+00
   endloop
 endfacet
 facet normal -6.087614e-01  0.000000e+00  7.933533e-01
   outer loop
     vertex -3.920000e+00  1.497500e+00  1.193603e+00
     vertex -3.940711e+00  1.497500e+00  1.177711e+00
     vertex -3.940711e+00 -1.497500e+00  1.177711e+00
   endloop
 endfacet
 facet normal -3.826834e-01  0.000000e+00  9.238795e-01
   outer loop
     vertex -3.895882e+00  1.497500e+00  1.203593e+00
     vertex -3.920000e+00 -1.497500e+00  1.193603e+00
     vertex -3.895882e+00 -1.497500e+00  1.203593e+00
   endloop
 endfacet
 facet normal -1.305262e-01  0.000000e+00  9.914449e-01
   outer loop
     vertex -3.895882e+00  1.497500e+00  1.203593e+00
     vertex -3.895882e+00 -1.497500e+00  1.203593e+00
     vertex -3.870000e+00 -1.497500e+00  1.207000e+00
   endloop
 endfacet
 facet normal -3.826834e-01  0.000000e+00  9.238795e-01
   outer loop
     vertex -3.895882e+00  1.497500e+00  1.203593e+00
     vertex -3.920000e+00  1.497500e+00  1.193603e+00
     vertex -3.920000e+00 -1.497500e+00  1.193603e+00
   endloop
 endfacet
 facet normal -1.305262e-01  0.000000e+00  9.914449e-01
   outer loop
     vertex -3.870000e+00  1.497500e+00  1.207000e+00
     vertex -3.895882e+00  1.497500e+00  1.203593e+00
     vertex -3.870000e+00 -1.497500e+00  1.207000e+00
   endloop
 endfacet
 facet normal  1.000000e+00 -0.000000e+00  0.000000e+00
   outer loop
     vertex -3.055000e+00 -1.497500e+00  1.207000e+00
     vertex -3.055000e+00  1.497500e+00  1.107000e+00
     vertex -3.055000e+00  1.497500e+00  1.207000e+00
   endloop
 endfacet
 facet normal  1.000000e+00 -0.000000e+00  0.000000e+00
   outer loop
     vertex -3.055000e+00 -1.497500e+00  1.207000e+00
     vertex -3.055000e+00 -1.497500e+00  1.107000e+00
     vertex -3.055000e+00  1.497500e+00  1.107000e+00
   endloop
 endfacet
 facet normal -1.000000e+00  0.000000e+00  0.000000e+00
   outer loop
     vertex -3.970000e+00  1.497500e+00  1.000000e-01
     vertex -3.970000e+00 -1.497500e+00  1.000000e-01
     vertex -3.970000e+00 -1.497500e+00  1.107000e+00
   endloop
 endfacet
 facet normal -1.000000e+00 -0.000000e+00 -0.000000e+00
   outer loop
     vertex -3.970000e+00  1.497500e+00  1.107000e+00
     vertex -3.970000e+00  1.497500e+00  1.000000e-01
     vertex -3.970000e+00 -1.497500e+00  1.107000e+00
   endloop
 endfacet
 facet normal  0.000000e+00  0.000000e+00 -1.000000e+00
   outer loop
     vertex -3.055000e+00 -1.497500e+00  1.107000e+00
     vertex -3.870000e+00 -1.497500e+00  1.107000e+00
     vertex -3.870000e+00  1.497500e+00  1.107000e+00
   endloop
 endfacet
 facet normal  0.000000e+00  0.000000e+00 -1.000000e+00
   outer loop
     vertex -3.055000e+00 -1.497500e+00  1.107000e+00
     vertex -3.870000e+00  1.497500e+00  1.107000e+00
     vertex -3.055000e+00  1.497500e+00  1.107000e+00
   endloop
 endfacet
 facet normal -1.305262e-01  0.000000e+00 -9.914449e-01
   outer loop
     vertex -3.895882e+00  1.497500e+00  3.407417e-03
     vertex -3.870000e+00 -1.497500e+00 -1.387779e-17
     vertex -3.895882e+00 -1.497500e+00  3.407417e-03
   endloop
 endfacet
 facet normal -3.826834e-01 -0.000000e+00 -9.238795e-01
   outer loop
     vertex -3.895882e+00  1.497500e+00  3.407417e-03
     vertex -3.895882e+00 -1.497500e+00  3.407417e-03
     vertex -3.920000e+00 -1.497500e+00  1.339746e-02
   endloop
 endfacet
 facet normal -1.305262e-01 -0.000000e+00 -9.914449e-01
   outer loop
     vertex -3.895882e+00  1.497500e+00  3.407417e-03
     vertex -3.870000e+00  1.497500e+00 -1.387779e-17
     vertex -3.870000e+00 -1.497500e+00 -1.387779e-17
   endloop
 endfacet
 facet normal -6.087614e-01 -0.000000e+00 -7.933533e-01
   outer loop
     vertex -3.920000e+00  1.497500e+00  1.339746e-02
     vertex -3.920000e+00 -1.497500e+00  1.339746e-02
     vertex -3.940711e+00 -1.497500e+00  2.928932e-02
   endloop
 endfacet
 facet normal -3.826834e-01  0.000000e+00 -9.238795e-01
   outer loop
     vertex -3.920000e+00  1.497500e+00  1.339746e-02
     vertex -3.895882e+00  1.497500e+00  3.407417e-03
     vertex -3.920000e+00 -1.497500e+00  1.339746e-02
   endloop
 endfacet
 facet normal -6.087614e-01  0.000000e+00 -7.933533e-01
   outer loop
     vertex -3.940711e+00  1.497500e+00  2.928932e-02
     vertex -3.920000e+00  1.497500e+00  1.339746e-02
     vertex -3.940711e+00 -1.497500e+00  2.928932e-02
   endloop
 endfacet
 facet normal -7.933533e-01  0.000000e+00 -6.087614e-01
   outer loop
     vertex -3.956603e+00  1.497500e+00  5.000000e-02
     vertex -3.940711e+00 -1.497500e+00  2.928932e-02
     vertex -3.956603e+00 -1.497500e+00  5.000000e-02
   endloop
 endfacet
 facet normal -7.933533e-01 -0.000000e+00 -6.087614e-01
   outer loop
     vertex -3.956603e+00  1.497500e+00  5.000000e-02
     vertex -3.940711e+00  1.497500e+00  2.928932e-02
     vertex -3.940711e+00 -1.497500e+00  2.928932e-02
   endloop
 endfacet
 facet normal -9.238795e-01  0.000000e+00 -3.826834e-01
   outer loop
     vertex -3.966593e+00  1.497500e+00  7.411810e-02
     vertex -3.956603e+00 -1.497500e+00  5.000000e-02
     vertex -3.966593e+00 -1.497500e+00  7.411810e-02
   endloop
 endfacet
 facet normal -9.914449e-01 -0.000000e+00 -1.305262e-01
   outer loop
     vertex -3.966593e+00  1.497500e+00  7.411810e-02
     vertex -3.966593e+00 -1.497500e+00  7.411810e-02
     vertex -3.970000e+00 -1.497500e+00  1.000000e-01
   endloop
 endfacet
 facet normal -9.238795e-01 -0.000000e+00 -3.826834e-01
   outer loop
     vertex -3.966593e+00  1.497500e+00  7.411810e-02
     vertex -3.956603e+00  1.497500e+00  5.000000e-02
     vertex -3.956603e+00 -1.497500e+00  5.000000e-02
   endloop
 endfacet
 facet normal -9.914449e-01  0.000000e+00 -1.305262e-01
   outer loop
     vertex -3.970000e+00  1.497500e+00  1.000000e-01
     vertex -3.966593e+00  1.497500e+00  7.411810e-02
     vertex -3.970000e+00 -1.497500e+00  1.000000e-01
   endloop
 endfacet
 facet normal  1.000000e+00 -0.000000e+00  0.000000e+00
   outer loop
     vertex -3.870000e+00 -1.497500e+00  1.107000e+00
     vertex -3.870000e+00  1.497500e+00  1.000000e-01
     vertex -3.870000e+00  1.497500e+00  1.107000e+00
   endloop
 endfacet
 facet normal  1.000000e+00 -0.000000e+00  0.000000e+00
   outer loop
     vertex -3.870000e+00 -1.497500e+00  1.107000e+00
     vertex -3.870000e+00 -1.497500e+00  1.000000e-01
     vertex -3.870000e+00  1.497500e+00  1.000000e-01
   endloop
 endfacet
 facet normal  1.516698e-17  0.000000e+00 -1.000000e+00
   outer loop
     vertex -3.870000e+00 -1.497500e+00 -1.387779e-17
     vertex -3.870000e+00  1.497500e+00 -1.387779e-17
     vertex -2.955000e+00  1.497500e+00  0.000000e+00
   endloop
 endfacet
 facet normal  1.516698e-17  0.000000e+00 -1.000000e+00
   outer loop
     vertex -2.955000e+00 -1.497500e+00  0.000000e+00
     vertex -3.870000e+00 -1.497500e+00 -1.387779e-17
     vertex -2.955000e+00  1.497500e+00  0.000000e+00
   endloop
 endfacet
 facet normal -0.000000e+00  0.000000e+00  1.000000e+00
   outer loop
     vertex -2.955000e+00  1.497500e+00  1.000000e-01
     vertex -3.870000e+00 -1.497500e+00  1.000000e-01
     vertex -2.955000e+00 -1.497500e+00  1.000000e-01
   endloop
 endfacet
 facet normal  0.000000e+00  0.000000e+00  1.000000e+00
   outer loop
     vertex -2.955000e+00  1.497500e+00  1.000000e-01
     vertex -3.870000e+00  1.497500e+00  1.000000e-01
     vertex -3.870000e+00 -1.497500e+00  1.000000e-01
   endloop
 endfacet
 facet normal  1.000000e+00 -0.000000e+00  0.000000e+00
   outer loop
     vertex -2.955000e+00 -1.497500e+00  1.000000e-01
     vertex -2.955000e+00  1.497500e+00  0.000000e+00
     vertex -2.955000e+00  1.497500e+00  1.000000e-01
   endloop
 endfacet
 facet normal  1.000000e+00 -0.000000e+00  0.000000e+00
   outer loop
     vertex -2.955000e+00 -1.497500e+00  1.000000e-01
     vertex -2.955000e+00 -1.497500e+00  0.000000e+00
     vertex -2.955000e+00  1.497500e+00  0.000000e+00
   endloop
 endfacet
 facet normal  0.000000e+00  1.000000e+00  0.000000e+00
   outer loop
     vertex -3.870000e+00  1.497500e+00  1.000000e-01
     vertex -3.870000e+00  1.497500e+00 -1.387779e-17
     vertex -3.895882e+00  1.497500e+00  3.407417e-03
   endloop
 endfacet
 facet normal  0.000000e+00  1.000000e+00  0.000000e+00
   outer loop
     vertex -3.870000e+00  1.497500e+00  1.000000e-01
     vertex -3.895882e+00  1.497500e+00  3.407417e-03
     vertex -3.920000e+00  1.497500e+00  1.339746e-02
   endloop
 endfacet
 facet normal  0.000000e+00  1.000000e+00  0.000000e+00
   outer loop
     vertex -3.870000e+00  1.497500e+00  1.000000e-01
     vertex -3.920000e+00  1.497500e+00  1.339746e-02
     vertex -3.940711e+00  1.497500e+00  2.928932e-02
   endloop
 endfacet
 facet normal  0.000000e+00  1.000000e+00  0.000000e+00
   outer loop
     vertex -3.870000e+00  1.497500e+00  1.000000e-01
     vertex -3.940711e+00  1.497500e+00  2.928932e-02
     vertex -3.956603e+00  1.497500e+00  5.000000e-02
   endloop
 endfacet
 facet normal  0.000000e+00  1.000000e+00  0.000000e+00
   outer loop
     vertex -3.870000e+00  1.497500e+00  1.000000e-01
     vertex -3.956603e+00  1.497500e+00  5.000000e-02
     vertex -3.966593e+00  1.497500e+00  7.411810e-02
   endloop
 endfacet
 facet normal  0.000000e+00  1.000000e+00  0.000000e+00
   outer loop
     vertex -3.870000e+00  1.497500e+00  1.000000e-01
     vertex -3.966593e+00  1.497500e+00  7.411810e-02
     vertex -3.970000e+00  1.497500e+00  1.000000e-01
   endloop
 endfacet
 facet normal  0.000000e+00  1.000000e+00  0.000000e+00
   outer loop
     vertex -3.970000e+00  1.497500e+00  1.107000e+00
     vertex -3.870000e+00  1.497500e+00  1.000000e-01
     vertex -3.970000e+00  1.497500e+00  1.000000e-01
   endloop
 endfacet
 facet normal  0.000000e+00  1.000000e+00  0.000000e+00
   outer loop
     vertex -2.955000e+00  1.497500e+00  1.000000e-01
     vertex -2.955000e+00  1.497500e+00  0.000000e+00
     vertex -3.870000e+00  1.497500e+00 -1.387779e-17
   endloop
 endfacet
 facet normal  0.000000e+00  1.000000e+00 -0.000000e+00
   outer loop
     vertex -2.955000e+00  1.497500e+00  1.000000e-01
     vertex -3.870000e+00  1.497500e+00 -1.387779e-17
     vertex -3.870000e+00  1.497500e+00  1.000000e-01
   endloop
 endfacet
 facet normal  0.000000e+00  1.000000e+00 -0.000000e+00
   outer loop
     vertex -3.870000e+00  1.497500e+00  1.107000e+00
     vertex -3.970000e+00  1.497500e+00  1.107000e+00
     vertex -3.966593e+00  1.497500e+00  1.132882e+00
   endloop
 endfacet
 facet normal  0.000000e+00  1.000000e+00 -0.000000e+00
   outer loop
     vertex -3.870000e+00  1.497500e+00  1.107000e+00
     vertex -3.966593e+00  1.497500e+00  1.132882e+00
     vertex -3.956603e+00  1.497500e+00  1.157000e+00
   endloop
 endfacet
 facet normal  0.000000e+00  1.000000e+00 -0.000000e+00
   outer loop
     vertex -3.870000e+00  1.497500e+00  1.107000e+00
     vertex -3.956603e+00  1.497500e+00  1.157000e+00
     vertex -3.940711e+00  1.497500e+00  1.177711e+00
   endloop
 endfacet
 facet normal  0.000000e+00  1.000000e+00  0.000000e+00
   outer loop
     vertex -3.870000e+00  1.497500e+00  1.107000e+00
     vertex -3.870000e+00  1.497500e+00  1.000000e-01
     vertex -3.970000e+00  1.497500e+00  1.107000e+00
   endloop
 endfacet
 facet normal  0.000000e+00  1.000000e+00  0.000000e+00
   outer loop
     vertex -3.920000e+00  1.497500e+00  1.193603e+00
     vertex -3.870000e+00  1.497500e+00  1.107000e+00
     vertex -3.940711e+00  1.497500e+00  1.177711e+00
   endloop
 endfacet
 facet normal  0.000000e+00  1.000000e+00  0.000000e+00
   outer loop
     vertex -3.895882e+00  1.497500e+00  1.203593e+00
     vertex -3.870000e+00  1.497500e+00  1.107000e+00
     vertex -3.920000e+00  1.497500e+00  1.193603e+00
   endloop
 endfacet
 facet normal  0.000000e+00  1.000000e+00  0.000000e+00
   outer loop
     vertex -3.870000e+00  1.497500e+00  1.207000e+00
     vertex -3.870000e+00  1.497500e+00  1.107000e+00
     vertex -3.895882e+00  1.497500e+00  1.203593e+00
   endloop
 endfacet
 facet normal  0.000000e+00  1.000000e+00  0.000000e+00
   outer loop
     vertex -3.055000e+00  1.497500e+00  1.207000e+00
     vertex -3.055000e+00  1.497500e+00  1.107000e+00
     vertex -3.870000e+00  1.497500e+00  1.107000e+00
   endloop
 endfacet
 facet normal  0.000000e+00  1.000000e+00 -0.000000e+00
   outer loop
     vertex -3.055000e+00  1.497500e+00  1.207000e+00
     vertex -3.870000e+00  1.497500e+00  1.107000e+00
     vertex -3.870000e+00  1.497500e+00  1.207000e+00
   endloop
 endfacet
 facet normal  1.000000e+00 -0.000000e+00  0.000000e+00
   outer loop
     vertex  3.970000e+00 -1.497500e+00  1.107000e+00
     vertex  3.970000e+00 -1.497500e+00  1.000000e-01
     vertex  3.970000e+00  1.497500e+00  1.000000e-01
   endloop
 endfacet
 facet normal  1.000000e+00 -0.000000e+00  0.000000e+00
   outer loop
     vertex  3.970000e+00 -1.497500e+00  1.107000e+00
     vertex  3.970000e+00  1.497500e+00  1.000000e-01
     vertex  3.970000e+00  1.497500e+00  1.107000e+00
   endloop
 endfacet
 facet normal  0.000000e+00 -1.000000e+00  0.000000e+00
   outer loop
     vertex  2.855000e+00 -1.497500e+00  0.000000e+00
     vertex  3.870000e+00 -1.497500e+00 -1.387779e-17
     vertex  3.870000e+00 -1.497500e+00  1.000000e-01
   endloop
 endfacet
 facet normal  0.000000e+00 -1.000000e+00  0.000000e+00
   outer loop
     vertex  3.920000e+00 -1.497500e+00  1.339746e-02
     vertex  3.940711e+00 -1.497500e+00  2.928932e-02
     vertex  3.870000e+00 -1.497500e+00  1.000000e-01
   endloop
 endfacet
 facet normal  0.000000e+00 -1.000000e+00  0.000000e+00
   outer loop
     vertex  3.895882e+00 -1.497500e+00  3.407417e-03
     vertex  3.920000e+00 -1.497500e+00  1.339746e-02
     vertex  3.870000e+00 -1.497500e+00  1.000000e-01
   endloop
 endfacet
 facet normal  0.000000e+00 -1.000000e+00  0.000000e+00
   outer loop
     vertex  3.870000e+00 -1.497500e+00 -1.387779e-17
     vertex  3.895882e+00 -1.497500e+00  3.407417e-03
     vertex  3.870000e+00 -1.497500e+00  1.000000e-01
   endloop
 endfacet
 facet normal  0.000000e+00 -1.000000e+00  0.000000e+00
   outer loop
     vertex  2.855000e+00 -1.497500e+00  1.000000e-01
     vertex  2.855000e+00 -1.497500e+00  0.000000e+00
     vertex  3.870000e+00 -1.497500e+00  1.000000e-01
   endloop
 endfacet
 facet normal  0.000000e+00 -1.000000e+00  0.000000e+00
   outer loop
     vertex  3.870000e+00 -1.497500e+00  1.000000e-01
     vertex  3.940711e+00 -1.497500e+00  2.928932e-02
     vertex  3.956603e+00 -1.497500e+00  5.000000e-02
   endloop
 endfacet
 facet normal  0.000000e+00 -1.000000e+00  0.000000e+00
   outer loop
     vertex  3.870000e+00 -1.497500e+00  1.000000e-01
     vertex  3.956603e+00 -1.497500e+00  5.000000e-02
     vertex  3.966593e+00 -1.497500e+00  7.411810e-02
   endloop
 endfacet
 facet normal  0.000000e+00 -1.000000e+00  0.000000e+00
   outer loop
     vertex  3.870000e+00 -1.497500e+00  1.000000e-01
     vertex  3.966593e+00 -1.497500e+00  7.411810e-02
     vertex  3.970000e+00 -1.497500e+00  1.000000e-01
   endloop
 endfacet
 facet normal  0.000000e+00 -1.000000e+00  0.000000e+00
   outer loop
     vertex  3.870000e+00 -1.497500e+00  1.000000e-01
     vertex  3.970000e+00 -1.497500e+00  1.000000e-01
     vertex  3.870000e+00 -1.497500e+00  1.107000e+00
   endloop
 endfacet
 facet normal  0.000000e+00 -1.000000e+00  0.000000e+00
   outer loop
     vertex  3.870000e+00 -1.497500e+00  1.107000e+00
     vertex  3.970000e+00 -1.497500e+00  1.000000e-01
     vertex  3.970000e+00 -1.497500e+00  1.107000e+00
   endloop
 endfacet
 facet normal  0.000000e+00 -1.000000e+00  0.000000e+00
   outer loop
     vertex  2.955000e+00 -1.497500e+00  1.107000e+00
     vertex  3.870000e+00 -1.497500e+00  1.107000e+00
     vertex  3.870000e+00 -1.497500e+00  1.207000e+00
   endloop
 endfacet
 facet normal  0.000000e+00 -1.000000e+00  0.000000e+00
   outer loop
     vertex  2.955000e+00 -1.497500e+00  1.207000e+00
     vertex  2.955000e+00 -1.497500e+00  1.107000e+00
     vertex  3.870000e+00 -1.497500e+00  1.207000e+00
   endloop
 endfacet
 facet normal  0.000000e+00 -1.000000e+00  0.000000e+00
   outer loop
     vertex  3.870000e+00 -1.497500e+00  1.207000e+00
     vertex  3.870000e+00 -1.497500e+00  1.107000e+00
     vertex  3.895882e+00 -1.497500e+00  1.203593e+00
   endloop
 endfacet
 facet normal  0.000000e+00 -1.000000e+00  0.000000e+00
   outer loop
     vertex  3.870000e+00 -1.497500e+00  1.107000e+00
     vertex  3.970000e+00 -1.497500e+00  1.107000e+00
     vertex  3.966593e+00 -1.497500e+00  1.132882e+00
   endloop
 endfacet
 facet normal  0.000000e+00 -1.000000e+00 -0.000000e+00
   outer loop
     vertex  3.895882e+00 -1.497500e+00  1.203593e+00
     vertex  3.870000e+00 -1.497500e+00  1.107000e+00
     vertex  3.920000e+00 -1.497500e+00  1.193603e+00
   endloop
 endfacet
 facet normal  0.000000e+00 -1.000000e+00  0.000000e+00
   outer loop
     vertex  3.870000e+00 -1.497500e+00  1.107000e+00
     vertex  3.966593e+00 -1.497500e+00  1.132882e+00
     vertex  3.956603e+00 -1.497500e+00  1.157000e+00
   endloop
 endfacet
 facet normal  0.000000e+00 -1.000000e+00 -0.000000e+00
   outer loop
     vertex  3.920000e+00 -1.497500e+00  1.193603e+00
     vertex  3.870000e+00 -1.497500e+00  1.107000e+00
     vertex  3.940711e+00 -1.497500e+00  1.177711e+00
   endloop
 endfacet
 facet normal  0.000000e+00 -1.000000e+00  0.000000e+00
   outer loop
     vertex  3.870000e+00 -1.497500e+00  1.107000e+00
     vertex  3.956603e+00 -1.497500e+00  1.157000e+00
     vertex  3.940711e+00 -1.497500e+00  1.177711e+00
   endloop
 endfacet
 facet normal  9.914449e-01  0.000000e+00 -1.305262e-01
   outer loop
     vertex  3.966593e+00  1.497500e+00  7.411810e-02
     vertex  3.970000e+00 -1.497500e+00  1.000000e-01
     vertex  3.966593e+00 -1.497500e+00  7.411810e-02
   endloop
 endfacet
 facet normal  9.914449e-01  0.000000e+00 -1.305262e-01
   outer loop
     vertex  3.966593e+00  1.497500e+00  7.411810e-02
     vertex  3.970000e+00  1.497500e+00  1.000000e-01
     vertex  3.970000e+00 -1.497500e+00  1.000000e-01
   endloop
 endfacet
 facet normal  9.238795e-01  0.000000e+00 -3.826834e-01
   outer loop
     vertex  3.956603e+00  1.497500e+00  5.000000e-02
     vertex  3.966593e+00 -1.497500e+00  7.411810e-02
     vertex  3.956603e+00 -1.497500e+00  5.000000e-02
   endloop
 endfacet
 facet normal  7.933533e-01  0.000000e+00 -6.087614e-01
   outer loop
     vertex  3.956603e+00  1.497500e+00  5.000000e-02
     vertex  3.956603e+00 -1.497500e+00  5.000000e-02
     vertex  3.940711e+00 -1.497500e+00  2.928932e-02
   endloop
 endfacet
 facet normal  9.238795e-01  0.000000e+00 -3.826834e-01
   outer loop
     vertex  3.956603e+00  1.497500e+00  5.000000e-02
     vertex  3.966593e+00  1.497500e+00  7.411810e-02
     vertex  3.966593e+00 -1.497500e+00  7.411810e-02
   endloop
 endfacet
 facet normal  6.087614e-01  0.000000e+00 -7.933533e-01
   outer loop
     vertex  3.940711e+00  1.497500e+00  2.928932e-02
     vertex  3.940711e+00 -1.497500e+00  2.928932e-02
     vertex  3.920000e+00 -1.497500e+00  1.339746e-02
   endloop
 endfacet
 facet normal  7.933533e-01  0.000000e+00 -6.087614e-01
   outer loop
     vertex  3.940711e+00  1.497500e+00  2.928932e-02
     vertex  3.956603e+00  1.497500e+00  5.000000e-02
     vertex  3.940711e+00 -1.497500e+00  2.928932e-02
   endloop
 endfacet
 facet normal  3.826834e-01  0.000000e+00 -9.238795e-01
   outer loop
     vertex  3.920000e+00  1.497500e+00  1.339746e-02
     vertex  3.920000e+00 -1.497500e+00  1.339746e-02
     vertex  3.895882e+00 -1.497500e+00  3.407417e-03
   endloop
 endfacet
 facet normal  6.087614e-01  0.000000e+00 -7.933533e-01
   outer loop
     vertex  3.920000e+00  1.497500e+00  1.339746e-02
     vertex  3.940711e+00  1.497500e+00  2.928932e-02
     vertex  3.920000e+00 -1.497500e+00  1.339746e-02
   endloop
 endfacet
 facet normal  1.305262e-01  0.000000e+00 -9.914449e-01
   outer loop
     vertex  3.895882e+00  1.497500e+00  3.407417e-03
     vertex  3.895882e+00 -1.497500e+00  3.407417e-03
     vertex  3.870000e+00 -1.497500e+00 -1.387779e-17
   endloop
 endfacet
 facet normal  3.826834e-01  0.000000e+00 -9.238795e-01
   outer loop
     vertex  3.895882e+00  1.497500e+00  3.407417e-03
     vertex  3.920000e+00  1.497500e+00  1.339746e-02
     vertex  3.895882e+00 -1.497500e+00  3.407417e-03
   endloop
 endfacet
 facet normal  1.305262e-01  0.000000e+00 -9.914449e-01
   outer loop
     vertex  3.870000e+00  1.497500e+00 -1.387779e-17
     vertex  3.895882e+00  1.497500e+00  3.407417e-03
     vertex  3.870000e+00 -1.497500e+00 -1.387779e-17
   endloop
 endfacet
 facet normal  9.914449e-01 -0.000000e+00  1.305262e-01
   outer loop
     vertex  3.966593e+00 -1.497500e+00  1.132882e+00
     vertex  3.970000e+00 -1.497500e+00  1.107000e+00
     vertex  3.970000e+00  1.497500e+00  1.107000e+00
   endloop
 endfacet
 facet normal  9.914449e-01  0.000000e+00  1.305262e-01
   outer loop
     vertex  3.966593e+00 -1.497500e+00  1.132882e+00
     vertex  3.970000e+00  1.497500e+00  1.107000e+00
     vertex  3.966593e+00  1.497500e+00  1.132882e+00
   endloop
 endfacet
 facet normal  9.238795e-01  0.000000e+00  3.826834e-01
   outer loop
     vertex  3.956603e+00 -1.497500e+00  1.157000e+00
     vertex  3.966593e+00 -1.497500e+00  1.132882e+00
     vertex  3.956603e+00  1.497500e+00  1.157000e+00
   endloop
 endfacet
 facet normal  7.933533e-01 -0.000000e+00  6.087614e-01
   outer loop
     vertex  3.940711e+00 -1.497500e+00  1.177711e+00
     vertex  3.956603e+00 -1.497500e+00  1.157000e+00
     vertex  3.956603e+00  1.497500e+00  1.157000e+00
   endloop
 endfacet
 facet normal  9.238795e-01 -0.000000e+00  3.826834e-01
   outer loop
     vertex  3.966593e+00 -1.497500e+00  1.132882e+00
     vertex  3.966593e+00  1.497500e+00  1.132882e+00
     vertex  3.956603e+00  1.497500e+00  1.157000e+00
   endloop
 endfacet
 facet normal  7.933533e-01  0.000000e+00  6.087614e-01
   outer loop
     vertex  3.940711e+00 -1.497500e+00  1.177711e+00
     vertex  3.956603e+00  1.497500e+00  1.157000e+00
     vertex  3.940711e+00  1.497500e+00  1.177711e+00
   endloop
 endfacet
 facet normal  6.087614e-01  0.000000e+00  7.933533e-01
   outer loop
     vertex  3.920000e+00 -1.497500e+00  1.193603e+00
     vertex  3.940711e+00 -1.497500e+00  1.177711e+00
     vertex  3.920000e+00  1.497500e+00  1.193603e+00
   endloop
 endfacet
 facet normal  6.087614e-01 -0.000000e+00  7.933533e-01
   outer loop
     vertex  3.940711e+00 -1.497500e+00  1.177711e+00
     vertex  3.940711e+00  1.497500e+00  1.177711e+00
     vertex  3.920000e+00  1.497500e+00  1.193603e+00
   endloop
 endfacet
 facet normal  3.826834e-01  0.000000e+00  9.238795e-01
   outer loop
     vertex  3.895882e+00 -1.497500e+00  1.203593e+00
     vertex  3.920000e+00 -1.497500e+00  1.193603e+00
     vertex  3.895882e+00  1.497500e+00  1.203593e+00
   endloop
 endfacet
 facet normal  1.305262e-01 -0.000000e+00  9.914449e-01
   outer loop
     vertex  3.870000e+00 -1.497500e+00  1.207000e+00
     vertex  3.895882e+00 -1.497500e+00  1.203593e+00
     vertex  3.895882e+00  1.497500e+00  1.203593e+00
   endloop
 endfacet
 facet normal  3.826834e-01 -0.000000e+00  9.238795e-01
   outer loop
     vertex  3.920000e+00 -1.497500e+00  1.193603e+00
     vertex  3.920000e+00  1.497500e+00  1.193603e+00
     vertex  3.895882e+00  1.497500e+00  1.203593e+00
   endloop
 endfacet
 facet normal  1.305262e-01  0.000000e+00  9.914449e-01
   outer loop
     vertex  3.870000e+00 -1.497500e+00  1.207000e+00
     vertex  3.895882e+00  1.497500e+00  1.203593e+00
     vertex  3.870000e+00  1.497500e+00  1.207000e+00
   endloop
 endfacet
 facet normal  0.000000e+00  1.000000e+00  0.000000e+00
   outer loop
     vertex  3.870000e+00  1.497500e+00  1.000000e-01
     vertex  3.920000e+00  1.497500e+00  1.339746e-02
     vertex  3.895882e+00  1.497500e+00  3.407417e-03
   endloop
 endfacet
 facet normal  0.000000e+00  1.000000e+00  0.000000e+00
   outer loop
     vertex  3.870000e+00  1.497500e+00  1.000000e-01
     vertex  3.895882e+00  1.497500e+00  3.407417e-03
     vertex  3.870000e+00  1.497500e+00 -1.387779e-17
   endloop
 endfacet
 facet normal  0.000000e+00  1.000000e+00  0.000000e+00
   outer loop
     vertex  3.870000e+00  1.497500e+00  1.000000e-01
     vertex  3.870000e+00  1.497500e+00 -1.387779e-17
     vertex  2.855000e+00  1.497500e+00  0.000000e+00
   endloop
 endfacet
 facet normal  0.000000e+00  1.000000e+00 -0.000000e+00
   outer loop
     vertex  3.870000e+00  1.497500e+00  1.000000e-01
     vertex  2.855000e+00  1.497500e+00  0.000000e+00
     vertex  2.855000e+00  1.497500e+00  1.000000e-01
   endloop
 endfacet
 facet normal  0.000000e+00  1.000000e+00  0.000000e+00
   outer loop
     vertex  3.940711e+00  1.497500e+00  2.928932e-02
     vertex  3.920000e+00  1.497500e+00  1.339746e-02
     vertex  3.870000e+00  1.497500e+00  1.000000e-01
   endloop
 endfacet
 facet normal  0.000000e+00  1.000000e+00  0.000000e+00
   outer loop
     vertex  3.956603e+00  1.497500e+00  5.000000e-02
     vertex  3.940711e+00  1.497500e+00  2.928932e-02
     vertex  3.870000e+00  1.497500e+00  1.000000e-01
   endloop
 endfacet
 facet normal  0.000000e+00  1.000000e+00  0.000000e+00
   outer loop
     vertex  3.966593e+00  1.497500e+00  7.411810e-02
     vertex  3.956603e+00  1.497500e+00  5.000000e-02
     vertex  3.870000e+00  1.497500e+00  1.000000e-01
   endloop
 endfacet
 facet normal  0.000000e+00  1.000000e+00  0.000000e+00
   outer loop
     vertex  3.970000e+00  1.497500e+00  1.000000e-01
     vertex  3.966593e+00  1.497500e+00  7.411810e-02
     vertex  3.870000e+00  1.497500e+00  1.000000e-01
   endloop
 endfacet
 facet normal  0.000000e+00  1.000000e+00  0.000000e+00
   outer loop
     vertex  3.870000e+00  1.497500e+00  1.107000e+00
     vertex  3.970000e+00  1.497500e+00  1.000000e-01
     vertex  3.870000e+00  1.497500e+00  1.000000e-01
   endloop
 endfacet
 facet normal  0.000000e+00  1.000000e+00 -0.000000e+00
   outer loop
     vertex  3.870000e+00  1.497500e+00  1.207000e+00
     vertex  2.955000e+00  1.497500e+00  1.107000e+00
     vertex  2.955000e+00  1.497500e+00  1.207000e+00
   endloop
 endfacet
 facet normal  0.000000e+00  1.000000e+00  0.000000e+00
   outer loop
     vertex  3.870000e+00  1.497500e+00  1.207000e+00
     vertex  3.870000e+00  1.497500e+00  1.107000e+00
     vertex  2.955000e+00  1.497500e+00  1.107000e+00
   endloop
 endfacet
 facet normal  0.000000e+00  1.000000e+00  0.000000e+00
   outer loop
     vertex  3.970000e+00  1.497500e+00  1.107000e+00
     vertex  3.970000e+00  1.497500e+00  1.000000e-01
     vertex  3.870000e+00  1.497500e+00  1.107000e+00
   endloop
 endfacet
 facet normal  0.000000e+00  1.000000e+00  0.000000e+00
   outer loop
     vertex  3.966593e+00  1.497500e+00  1.132882e+00
     vertex  3.970000e+00  1.497500e+00  1.107000e+00
     vertex  3.870000e+00  1.497500e+00  1.107000e+00
   endloop
 endfacet
 facet normal  0.000000e+00  1.000000e+00 -0.000000e+00
   outer loop
     vertex  3.895882e+00  1.497500e+00  1.203593e+00
     vertex  3.870000e+00  1.497500e+00  1.107000e+00
     vertex  3.870000e+00  1.497500e+00  1.207000e+00
   endloop
 endfacet
 facet normal  0.000000e+00  1.000000e+00  0.000000e+00
   outer loop
     vertex  3.956603e+00  1.497500e+00  1.157000e+00
     vertex  3.966593e+00  1.497500e+00  1.132882e+00
     vertex  3.870000e+00  1.497500e+00  1.107000e+00
   endloop
 endfacet
 facet normal  0.000000e+00  1.000000e+00 -0.000000e+00
   outer loop
     vertex  3.920000e+00  1.497500e+00  1.193603e+00
     vertex  3.870000e+00  1.497500e+00  1.107000e+00
     vertex  3.895882e+00  1.497500e+00  1.203593e+00
   endloop
 endfacet
 facet normal  0.000000e+00  1.000000e+00  0.000000e+00
   outer loop
     vertex  3.940711e+00  1.497500e+00  1.177711e+00
     vertex  3.956603e+00  1.497500e+00  1.157000e+00
     vertex  3.870000e+00  1.497500e+00  1.107000e+00
   endloop
 endfacet
 facet normal  0.000000e+00  1.000000e+00 -0.000000e+00
   outer loop
     vertex  3.940711e+00  1.497500e+00  1.177711e+00
     vertex  3.870000e+00  1.497500e+00  1.107000e+00
     vertex  3.920000e+00  1.497500e+00  1.193603e+00
   endloop
 endfacet
 facet normal -1.367270e-17  0.000000e+00 -1.000000e+00
   outer loop
     vertex  2.855000e+00 -1.497500e+00  0.000000e+00
     vertex  2.855000e+00  1.497500e+00  0.000000e+00
     vertex  3.870000e+00  1.497500e+00 -1.387779e-17
   endloop
 endfacet
 facet normal -1.367270e-17  0.000000e+00 -1.000000e+00
   outer loop
     vertex  3.870000e+00 -1.497500e+00 -1.387779e-17
     vertex  2.855000e+00 -1.497500e+00  0.000000e+00
     vertex  3.870000e+00  1.497500e+00 -1.387779e-17
   endloop
 endfacet
 facet normal -1.000000e+00 -0.000000e+00 -0.000000e+00
   outer loop
     vertex  2.855000e+00  1.497500e+00  1.000000e-01
     vertex  2.855000e+00  1.497500e+00  0.000000e+00
     vertex  2.855000e+00 -1.497500e+00  1.000000e-01
   endloop
 endfacet
 facet normal -1.000000e+00  0.000000e+00  0.000000e+00
   outer loop
     vertex  2.855000e+00  1.497500e+00  0.000000e+00
     vertex  2.855000e+00 -1.497500e+00  0.000000e+00
     vertex  2.855000e+00 -1.497500e+00  1.000000e-01
   endloop
 endfacet
 facet normal  0.000000e+00  0.000000e+00  1.000000e+00
   outer loop
     vertex  3.870000e+00  1.497500e+00  1.000000e-01
     vertex  2.855000e+00  1.497500e+00  1.000000e-01
     vertex  2.855000e+00 -1.497500e+00  1.000000e-01
   endloop
 endfacet
 facet normal -0.000000e+00  0.000000e+00  1.000000e+00
   outer loop
     vertex  3.870000e+00  1.497500e+00  1.000000e-01
     vertex  2.855000e+00 -1.497500e+00  1.000000e-01
     vertex  3.870000e+00 -1.497500e+00  1.000000e-01
   endloop
 endfacet
 facet normal -1.000000e+00 -0.000000e+00 -0.000000e+00
   outer loop
     vertex  3.870000e+00  1.497500e+00  1.107000e+00
     vertex  3.870000e+00  1.497500e+00  1.000000e-01
     vertex  3.870000e+00 -1.497500e+00  1.107000e+00
   endloop
 endfacet
 facet normal -1.000000e+00  0.000000e+00  0.000000e+00
   outer loop
     vertex  3.870000e+00  1.497500e+00  1.000000e-01
     vertex  3.870000e+00 -1.497500e+00  1.000000e-01
     vertex  3.870000e+00 -1.497500e+00  1.107000e+00
   endloop
 endfacet
 facet normal  0.000000e+00 -0.000000e+00  1.000000e+00
   outer loop
     vertex  2.955000e+00 -1.497500e+00  1.207000e+00
     vertex  3.870000e+00 -1.497500e+00  1.207000e+00
     vertex  2.955000e+00  1.497500e+00  1.207000e+00
   endloop
 endfacet
 facet normal  0.000000e+00 -0.000000e+00  1.000000e+00
   outer loop
     vertex  3.870000e+00 -1.497500e+00  1.207000e+00
     vertex  3.870000e+00  1.497500e+00  1.207000e+00
     vertex  2.955000e+00  1.497500e+00  1.207000e+00
   endloop
 endfacet
 facet normal  0.000000e+00  0.000000e+00 -1.000000e+00
   outer loop
     vertex  2.955000e+00 -1.497500e+00  1.107000e+00
     vertex  2.955000e+00  1.497500e+00  1.107000e+00
     vertex  3.870000e+00  1.497500e+00  1.107000e+00
   endloop
 endfacet
 facet normal  0.000000e+00  0.000000e+00 -1.000000e+00
   outer loop
     vertex  3.870000e+00 -1.497500e+00  1.107000e+00
     vertex  2.955000e+00 -1.497500e+00  1.107000e+00
     vertex  3.870000e+00  1.497500e+00  1.107000e+00
   endloop
 endfacet
 facet normal -1.000000e+00 -0.000000e+00 -0.000000e+00
   outer loop
     vertex  2.955000e+00  1.497500e+00  1.207000e+00
     vertex  2.955000e+00  1.497500e+00  1.107000e+00
     vertex  2.955000e+00 -1.497500e+00  1.207000e+00
   endloop
 endfacet
 facet normal -1.000000e+00  0.000000e+00  0.000000e+00
   outer loop
     vertex  2.955000e+00  1.497500e+00  1.107000e+00
     vertex  2.955000e+00 -1.497500e+00  1.107000e+00
     vertex  2.955000e+00 -1.497500e+00  1.207000e+00
   endloop
 endfacet
endsolid
